# xmcd
# 
# Track frame offsets:
#     150
#     18062
#     36725
#     55212
#     74150
#     91787
#     112712
#     132437
#     152012
#     171125
#     189237
#     202637
#     223050
#     242087
#     259475
# 
# Disc length: 3696
# 
# Revision: 2
# Processed by: cddbd v1.5.2PL0 Copyright (c) Steve Scherf et al.
# Submitted via: fre:ac v1.1beta1pre4
# 
DISCID=cf0e6e0f
DTITLE=Various Artist - 百代 No.1 精選
DYEAR=1995
DGENRE=
TTITLE0=彭羚 - 完全因你
TTITLE1=巫啟賢 - 心酸的情歌
TTITLE2=揚采妮 - 但愿你明白
TTITLE3=劉雅麗 - 我和春天有個約會
TTITLE4=彭羚 - 讓我跟你走
TTITLE5=揚采妮/巫啟賢 - 愛情來的時侯
TTITLE6=張立基 - 燃燒我的夢
TTITLE7=巫啟賢 - 太傻
TTITLE8=彭羚 - 未完的小說
TTITLE9=揚采妮 - 初戀
TTITLE10=劉雅麗 - 你你你為了愛情
TTITLE11=巫啟賢 - 紅塵來去一場夢
TTITLE12=鄺美雲 - 其實我愛你嗎
TTITLE13=黎明詩 - 但願愛一個人
TTITLE14=彭羚 - 感謝你
EXTD=
EXTT0=
EXTT1=
EXTT2=
EXTT3=
EXTT4=
EXTT5=
EXTT6=
EXTT7=
EXTT8=
EXTT9=
EXTT10=
EXTT11=
EXTT12=
EXTT13=
EXTT14=
PLAYORDER=
